<mxfile host="65bd71144e">
    <diagram id="VsUsi_KXXaJxlEpxRt6S" name="Page-1">
        <mxGraphModel dx="688" dy="451" grid="1" gridSize="10" guides="1" tooltips="1" connect="1" arrows="1" fold="1" page="1" pageScale="1" pageWidth="850" pageHeight="1100" math="0" shadow="0">
            <root>
                <mxCell id="0"/>
                <mxCell id="1" parent="0"/>
                <mxCell id="fu8gtFkZEylE_aEPs_Ba-3" value="" style="edgeStyle=orthogonalEdgeStyle;rounded=0;orthogonalLoop=1;jettySize=auto;html=1;" parent="1" source="fu8gtFkZEylE_aEPs_Ba-1" target="fu8gtFkZEylE_aEPs_Ba-2" edge="1">
                    <mxGeometry relative="1" as="geometry"/>
                </mxCell>
                <mxCell id="fu8gtFkZEylE_aEPs_Ba-1" value="User Enters" style="rounded=1;whiteSpace=wrap;html=1;" parent="1" vertex="1">
                    <mxGeometry x="365" y="40" width="120" height="60" as="geometry"/>
                </mxCell>
                <mxCell id="fu8gtFkZEylE_aEPs_Ba-6" value="" style="edgeStyle=orthogonalEdgeStyle;rounded=0;orthogonalLoop=1;jettySize=auto;html=1;entryX=0.5;entryY=0;entryDx=0;entryDy=0;" parent="1" source="fu8gtFkZEylE_aEPs_Ba-2" target="12" edge="1">
                    <mxGeometry relative="1" as="geometry"/>
                </mxCell>
                <mxCell id="fu8gtFkZEylE_aEPs_Ba-2" value="User views all user's lists" style="rounded=0;whiteSpace=wrap;html=1;" parent="1" vertex="1">
                    <mxGeometry x="365" y="120" width="120" height="60" as="geometry"/>
                </mxCell>
                <mxCell id="fu8gtFkZEylE_aEPs_Ba-20" style="edgeStyle=orthogonalEdgeStyle;rounded=0;orthogonalLoop=1;jettySize=auto;html=1;exitX=0.914;exitY=0.957;exitDx=0;exitDy=0;entryX=0.5;entryY=0;entryDx=0;entryDy=0;exitPerimeter=0;" parent="1" source="fu8gtFkZEylE_aEPs_Ba-5" target="fu8gtFkZEylE_aEPs_Ba-9" edge="1">
                    <mxGeometry relative="1" as="geometry"/>
                </mxCell>
                <mxCell id="fu8gtFkZEylE_aEPs_Ba-21" style="edgeStyle=orthogonalEdgeStyle;rounded=0;orthogonalLoop=1;jettySize=auto;html=1;exitX=0.11;exitY=1.243;exitDx=0;exitDy=0;entryX=0.5;entryY=0;entryDx=0;entryDy=0;exitPerimeter=0;" parent="1" source="fu8gtFkZEylE_aEPs_Ba-15" target="fu8gtFkZEylE_aEPs_Ba-8" edge="1">
                    <mxGeometry relative="1" as="geometry"/>
                </mxCell>
                <mxCell id="fu8gtFkZEylE_aEPs_Ba-22" style="edgeStyle=orthogonalEdgeStyle;rounded=0;orthogonalLoop=1;jettySize=auto;html=1;entryX=0.5;entryY=0;entryDx=0;entryDy=0;exitX=0.62;exitY=1.386;exitDx=0;exitDy=0;exitPerimeter=0;" parent="1" source="fu8gtFkZEylE_aEPs_Ba-5" target="fu8gtFkZEylE_aEPs_Ba-7" edge="1">
                    <mxGeometry relative="1" as="geometry">
                        <mxPoint x="515" y="530" as="sourcePoint"/>
                    </mxGeometry>
                </mxCell>
                <mxCell id="fu8gtFkZEylE_aEPs_Ba-5" value="" style="rounded=0;whiteSpace=wrap;html=1;fillColor=#000000;" parent="1" vertex="1">
                    <mxGeometry x="290" y="490" width="310" height="10" as="geometry"/>
                </mxCell>
                <mxCell id="fu8gtFkZEylE_aEPs_Ba-7" value="Create new entry" style="rounded=0;whiteSpace=wrap;html=1;fillColor=#FFFFFF;" parent="1" vertex="1">
                    <mxGeometry x="450" y="530" width="70" height="50" as="geometry"/>
                </mxCell>
                <mxCell id="fu8gtFkZEylE_aEPs_Ba-8" value="edit review" style="rounded=0;whiteSpace=wrap;html=1;fillColor=#FFFFFF;" parent="1" vertex="1">
                    <mxGeometry x="490" y="390" width="70" height="30" as="geometry"/>
                </mxCell>
                <mxCell id="fu8gtFkZEylE_aEPs_Ba-9" value="delete existing entry" style="rounded=0;whiteSpace=wrap;html=1;fillColor=#FFFFFF;" parent="1" vertex="1">
                    <mxGeometry x="530" y="530" width="70" height="50" as="geometry"/>
                </mxCell>
                <mxCell id="fu8gtFkZEylE_aEPs_Ba-12" value="Push to social media" style="rounded=0;whiteSpace=wrap;html=1;fillColor=#FFFFFF;" parent="1" vertex="1">
                    <mxGeometry x="570" y="390" width="70" height="30" as="geometry"/>
                </mxCell>
                <mxCell id="fu8gtFkZEylE_aEPs_Ba-19" style="edgeStyle=orthogonalEdgeStyle;rounded=0;orthogonalLoop=1;jettySize=auto;html=1;exitX=0.75;exitY=1;exitDx=0;exitDy=0;entryX=0.5;entryY=0;entryDx=0;entryDy=0;" parent="1" source="fu8gtFkZEylE_aEPs_Ba-15" target="fu8gtFkZEylE_aEPs_Ba-12" edge="1">
                    <mxGeometry relative="1" as="geometry">
                        <Array as="points">
                            <mxPoint x="603" y="371"/>
                            <mxPoint x="605" y="371"/>
                        </Array>
                    </mxGeometry>
                </mxCell>
                <mxCell id="29" style="edgeStyle=none;html=1;entryX=0.5;entryY=0;entryDx=0;entryDy=0;exitX=0.626;exitY=1.129;exitDx=0;exitDy=0;exitPerimeter=0;" edge="1" parent="1" source="fu8gtFkZEylE_aEPs_Ba-15" target="28">
                    <mxGeometry relative="1" as="geometry"/>
                </mxCell>
                <mxCell id="fu8gtFkZEylE_aEPs_Ba-15" value="" style="whiteSpace=wrap;html=1;fillColor=#000000;rounded=0;" parent="1" vertex="1">
                    <mxGeometry x="490" y="360" width="310" height="10" as="geometry"/>
                </mxCell>
                <mxCell id="24" style="edgeStyle=none;html=1;entryX=0.5;entryY=0;entryDx=0;entryDy=0;" edge="1" parent="1" source="4" target="fu8gtFkZEylE_aEPs_Ba-15">
                    <mxGeometry relative="1" as="geometry">
                        <Array as="points">
                            <mxPoint x="555" y="350"/>
                            <mxPoint x="645" y="350"/>
                        </Array>
                    </mxGeometry>
                </mxCell>
                <mxCell id="4" value="view book" style="rounded=0;whiteSpace=wrap;html=1;fillColor=#FFFFFF;" vertex="1" parent="1">
                    <mxGeometry x="520" y="320" width="70" height="20" as="geometry"/>
                </mxCell>
                <mxCell id="16" style="edgeStyle=none;html=1;entryX=0.5;entryY=0;entryDx=0;entryDy=0;" edge="1" parent="1" target="15">
                    <mxGeometry relative="1" as="geometry">
                        <mxPoint x="295" y="215" as="sourcePoint"/>
                    </mxGeometry>
                </mxCell>
                <mxCell id="18" style="edgeStyle=none;html=1;entryX=0.5;entryY=0;entryDx=0;entryDy=0;exitX=0.648;exitY=1.157;exitDx=0;exitDy=0;exitPerimeter=0;" edge="1" parent="1" source="12" target="17">
                    <mxGeometry relative="1" as="geometry">
                        <mxPoint x="390" y="215" as="sourcePoint"/>
                    </mxGeometry>
                </mxCell>
                <mxCell id="20" style="edgeStyle=none;html=1;entryX=0.5;entryY=0;entryDx=0;entryDy=0;exitX=0.897;exitY=1.157;exitDx=0;exitDy=0;exitPerimeter=0;" edge="1" parent="1" source="12" target="19">
                    <mxGeometry relative="1" as="geometry"/>
                </mxCell>
                <mxCell id="12" value="" style="rounded=0;whiteSpace=wrap;html=1;fillColor=#000000;" vertex="1" parent="1">
                    <mxGeometry x="260" y="210" width="330" height="10" as="geometry"/>
                </mxCell>
                <mxCell id="15" value="Create new list" style="rounded=0;whiteSpace=wrap;html=1;fillColor=#FFFFFF;" vertex="1" parent="1">
                    <mxGeometry x="260" y="240" width="70" height="60" as="geometry"/>
                </mxCell>
                <mxCell id="21" style="edgeStyle=none;html=1;entryX=0.5;entryY=0;entryDx=0;entryDy=0;" edge="1" parent="1" source="17" target="fu8gtFkZEylE_aEPs_Ba-5">
                    <mxGeometry relative="1" as="geometry">
                        <Array as="points">
                            <mxPoint x="475" y="310"/>
                            <mxPoint x="445" y="310"/>
                        </Array>
                    </mxGeometry>
                </mxCell>
                <mxCell id="17" value="edit lists" style="rounded=0;whiteSpace=wrap;html=1;fillColor=#FFFFFF;" vertex="1" parent="1">
                    <mxGeometry x="440" y="240" width="70" height="60" as="geometry"/>
                </mxCell>
                <mxCell id="27" style="edgeStyle=none;html=1;" edge="1" parent="1" source="19" target="4">
                    <mxGeometry relative="1" as="geometry"/>
                </mxCell>
                <mxCell id="19" value="Select a book" style="rounded=0;whiteSpace=wrap;html=1;fillColor=#FFFFFF;" vertex="1" parent="1">
                    <mxGeometry x="520" y="240" width="70" height="60" as="geometry"/>
                </mxCell>
                <mxCell id="25" value="rename list/edit description" style="rounded=0;whiteSpace=wrap;html=1;fillColor=#FFFFFF;" vertex="1" parent="1">
                    <mxGeometry x="370" y="530" width="70" height="50" as="geometry"/>
                </mxCell>
                <mxCell id="26" value="" style="endArrow=classic;html=1;exitX=0.371;exitY=1.1;exitDx=0;exitDy=0;exitPerimeter=0;entryX=0.5;entryY=0;entryDx=0;entryDy=0;" edge="1" parent="1" source="fu8gtFkZEylE_aEPs_Ba-5" target="25">
                    <mxGeometry width="50" height="50" relative="1" as="geometry">
                        <mxPoint x="580" y="550" as="sourcePoint"/>
                        <mxPoint x="630" y="500" as="targetPoint"/>
                    </mxGeometry>
                </mxCell>
                <mxCell id="28" value="log pages" style="rounded=0;whiteSpace=wrap;html=1;fillColor=#FFFFFF;" vertex="1" parent="1">
                    <mxGeometry x="650" y="390" width="70" height="30" as="geometry"/>
                </mxCell>
                <mxCell id="30" value="go back" style="rounded=0;whiteSpace=wrap;html=1;fillColor=#FFFFFF;" vertex="1" parent="1">
                    <mxGeometry x="730" y="390" width="70" height="30" as="geometry"/>
                </mxCell>
                <mxCell id="31" value="" style="endArrow=classic;html=1;exitX=0.886;exitY=1.071;exitDx=0;exitDy=0;exitPerimeter=0;entryX=0.5;entryY=0;entryDx=0;entryDy=0;" edge="1" parent="1" source="fu8gtFkZEylE_aEPs_Ba-15" target="30">
                    <mxGeometry width="50" height="50" relative="1" as="geometry">
                        <mxPoint x="480" y="320" as="sourcePoint"/>
                        <mxPoint x="530" y="270" as="targetPoint"/>
                    </mxGeometry>
                </mxCell>
                <mxCell id="32" value="" style="endArrow=classic;html=1;exitX=0.5;exitY=1;exitDx=0;exitDy=0;entryX=0.894;entryY=0.014;entryDx=0;entryDy=0;entryPerimeter=0;" edge="1" parent="1" source="30" target="12">
                    <mxGeometry width="50" height="50" relative="1" as="geometry">
                        <mxPoint x="480" y="320" as="sourcePoint"/>
                        <mxPoint x="560" y="180" as="targetPoint"/>
                        <Array as="points">
                            <mxPoint x="765" y="440"/>
                            <mxPoint x="810" y="440"/>
                            <mxPoint x="810" y="180"/>
                            <mxPoint x="555" y="180"/>
                        </Array>
                    </mxGeometry>
                </mxCell>
                <mxCell id="33" value="go back" style="rounded=0;whiteSpace=wrap;html=1;fillColor=#FFFFFF;" vertex="1" parent="1">
                    <mxGeometry x="290" y="530" width="70" height="50" as="geometry"/>
                </mxCell>
                <mxCell id="34" value="" style="endArrow=classic;html=1;entryX=0.5;entryY=0;entryDx=0;entryDy=0;" edge="1" parent="1" target="33">
                    <mxGeometry width="50" height="50" relative="1" as="geometry">
                        <mxPoint x="325" y="495" as="sourcePoint"/>
                        <mxPoint x="370" y="500" as="targetPoint"/>
                    </mxGeometry>
                </mxCell>
            </root>
        </mxGraphModel>
    </diagram>
</mxfile>